<?xml version="1.0" encoding="UTF-8"?>
<svg version="1.1" xmlns="http://www.w3.org/2000/svg" width="1000" height="1000">
<path d="M0 0 C330 0 660 0 1000 0 C1000 330 1000 660 1000 1000 C670 1000 340 1000 0 1000 C0 670 0 340 0 0 Z " fill="#080809" transform="translate(0,0)"/>
<path d="M0 0 C1.35511945 1.14128882 2.68941216 2.30783877 4 3.5 C4.68320312 4.11488281 5.36640625 4.72976563 6.0703125 5.36328125 C19.04546999 17.67241355 26.67616671 34.1347801 27.30078125 52.05078125 C27.31988561 53.97126312 27.3234387 55.89195426 27.3125 57.8125 C27.30831055 58.82143311 27.30412109 59.83036621 27.29980469 60.86987305 C27.18488653 68.47219849 26.43007458 75.2516741 24 82.5 C23.7215625 83.35078125 23.443125 84.2015625 23.15625 85.078125 C16.63533506 102.9544263 4.44035652 117.18201672 -12.73632812 125.46606445 C-31.41404532 133.89685266 -51.57899051 135.07388144 -71 128.5 C-76.27688851 126.23434798 -81.22235959 123.68509361 -86 120.5 C-86 141.29 -86 162.08 -86 183.5 C-97.88 183.5 -109.76 183.5 -122 183.5 C-122.09047378 165.32312133 -122.16408259 147.14643638 -122.20724869 128.96939468 C-122.22782877 120.52850503 -122.25586166 112.08776576 -122.30175781 103.64697266 C-122.34176571 96.28555022 -122.36746588 88.92423676 -122.37635398 81.56270862 C-122.38154526 77.66879702 -122.39365015 73.77519702 -122.42292023 69.8813858 C-122.45031069 66.20744111 -122.45839804 62.53393282 -122.45243073 58.85989571 C-122.45403549 56.88690207 -122.47543351 54.91395467 -122.49768066 52.94108582 C-122.42038663 36.03216635 -114.94473512 18.68043634 -103.20214844 6.45629883 C-76.19635686 -20.25796347 -30.26354477 -22.63277105 0 0 Z " fill="#FAF9FA" transform="translate(283,421.5)"/>
<path d="M0 0 C1.84987178 1.58441933 3.37994442 3.17090499 5 5 C5.99 5.66 6.98 6.32 8 7 C8.23460937 6.4121875 8.46921875 5.824375 8.7109375 5.21875 C12.79522766 -1.81117973 23.28258504 -6.49250651 30.8359375 -8.90625 C48.46973767 -13.4298852 71.95797799 -13.47024555 88 -4 C101.59461247 4.7571484 110.69294103 16.35361134 114.55270386 32.28070068 C116.52750554 42.50006749 116.25190217 52.71688084 116.1953125 63.078125 C116.19157555 65.1012152 116.1887318 67.12430723 116.18673706 69.1473999 C116.17915431 74.43435797 116.1595527 79.72120359 116.1373291 85.00811768 C116.11675435 90.41815673 116.10771063 95.82821422 116.09765625 101.23828125 C116.07630104 111.82557782 116.04116345 122.4127619 116 133 C103.79 133 91.58 133 79 133 C78.9906543 130.32600098 78.98130859 127.65200195 78.97167969 124.89697266 C78.93782662 116.03600751 78.8822314 107.17527322 78.81609726 98.31449318 C78.77668368 92.94516449 78.74446515 87.5759983 78.72900391 82.20654297 C78.71379708 77.01919749 78.67928001 71.83229894 78.63169098 66.64515305 C78.61691866 64.67178622 78.60896138 62.69835556 78.60811615 60.72493362 C78.87924447 44.68817349 78.87924447 44.68817349 72.0703125 30.5625 C71.42835938 30.046875 70.78640625 29.53125 70.125 29 C69.48820313 28.46375 68.85140625 27.9275 68.1953125 27.375 C60.8567035 22.77857586 51.38138099 22.8168176 43 24 C36.94454104 26.10592075 32.53228563 29.72286042 28.9375 34.99609375 C26.15433993 40.9450984 25.69845008 46.50214088 25.68115234 52.96459961 C25.67110672 53.83368958 25.6610611 54.70277954 25.65071106 55.59820557 C25.62000375 58.44957869 25.6028787 61.30085846 25.5859375 64.15234375 C25.56721583 66.13774919 25.54764167 68.12314676 25.5272522 70.10853577 C25.4760306 75.31820016 25.43635156 80.52789032 25.39910889 85.7376709 C25.35900663 91.06020429 25.30794271 96.38263141 25.2578125 101.70507812 C25.16117125 112.13665134 25.07774261 122.5682688 25 133 C12.79 133 0.58 133 -12 133 C-12.0093457 130.29047119 -12.01869141 127.58094238 -12.02832031 124.78930664 C-12.06215396 115.81657711 -12.11773852 106.84407602 -12.18390274 97.87152958 C-12.22333783 92.43379101 -12.25554587 86.99621342 -12.27099609 81.55834961 C-12.28618866 76.30617227 -12.32068073 71.05443763 -12.36830902 65.80245781 C-12.38309595 63.80314427 -12.39103947 61.80376753 -12.39188385 59.80439949 C-12.39426335 56.99420625 -12.42142179 54.18522671 -12.45410156 51.37524414 C-12.4490712 50.55668442 -12.44404083 49.73812469 -12.43885803 48.89476013 C-12.56764195 41.69264905 -14.74165684 35.82292895 -19.25 30.1875 C-25.51046116 25.20758771 -31.03487042 23.33689154 -39 23.5 C-39.75539063 23.48453125 -40.51078125 23.4690625 -41.2890625 23.453125 C-47.86192471 23.49829931 -53.29821382 25.27167368 -57.98828125 30.0078125 C-58.42527344 30.70648438 -58.86226562 31.40515625 -59.3125 32.125 C-59.98732422 33.14980469 -59.98732422 33.14980469 -60.67578125 34.1953125 C-65.70677608 44.85092988 -65.47327985 55.23632208 -65.51171875 66.7890625 C-65.5285864 68.70292294 -65.54673941 70.61677245 -65.56611633 72.53060913 C-65.61339606 77.53803082 -65.64334745 82.54540813 -65.66955566 87.55297852 C-65.69947292 92.67473101 -65.74596462 97.79633097 -65.79101562 102.91796875 C-65.87679797 112.94524977 -65.94271998 122.97251562 -66 133 C-77.88 133 -89.76 133 -102 133 C-102.06800222 120.8380641 -102.12294631 108.6762562 -102.15543652 96.51417255 C-102.17103671 90.86573996 -102.19217106 85.21744513 -102.22631836 79.5690918 C-102.25911413 74.10961252 -102.27689539 68.65026506 -102.28463173 63.19069481 C-102.29013914 61.11647659 -102.30089293 59.04226491 -102.31719017 56.96810341 C-102.46371631 37.5318862 -100.90288786 19.92552096 -86.8125 5.0625 C-64.25826228 -15.74738012 -25.0554589 -17.96581137 0 0 Z " fill="#F9F9F9" transform="translate(721,418)"/>
<path d="M0 0 C0.89847656 0.26683594 1.79695312 0.53367187 2.72265625 0.80859375 C11.88981366 3.99655421 19.22652203 10.30202938 25 18 C18.89980329 26.38777047 9.98756531 32.52478621 2 39 C-0.94811409 37.64033762 -3.3002153 36.04666778 -5.8125 34 C-13.40501271 28.30908554 -21.76155723 28.09739352 -31 29 C-34.35644663 30.09406299 -37.45345619 31.45345619 -40 34 C-40.64879911 39.81331756 -40.64879911 39.81331756 -37.9375 44.75 C-30.80838751 50.2105968 -24.2123517 52.16623159 -15.5625 54.25 C1.3767652 58.57444048 17.43760668 64.43937814 27 80 C31.95979094 88.96864453 31.36777061 102.54042807 29.125 112.3125 C25.4662344 122.27055542 17.33936705 131.19778789 8 136 C7.13503906 136.45890625 6.27007813 136.9178125 5.37890625 137.390625 C-10.54301388 145.24995579 -32.67628078 145.6506768 -49.7421875 141.1640625 C-60.82063316 137.20557712 -71.85923775 131.6865988 -80 123 C-81.2890625 120.23046875 -81.2890625 120.23046875 -82 118 C-76.44344136 112.1020828 -70.30914831 107.06815968 -64 102 C-61.99227362 100.34227956 -59.99575807 98.67212163 -58 97 C-57.28714844 97.61488281 -56.57429688 98.22976563 -55.83984375 98.86328125 C-45.48563777 107.60094901 -35.76466051 112.07228675 -22 111 C-17.20681924 110.25550945 -12.89486308 108.97842471 -9 106 C-6.67893009 102.79471299 -6.44594249 99.87840257 -7 96 C-12.79812935 87.8826189 -24.71061987 86.15166932 -33.8125 83.6875 C-42.97218426 81.1026185 -51.01636518 78.29866239 -59 73 C-59.845625 72.44570313 -60.69125 71.89140625 -61.5625 71.3203125 C-69.07490108 65.95784199 -74.1831106 58.98388751 -76.52734375 50 C-78.09888121 40.02528289 -78.64571205 28.77047782 -73 20 C-70.22439764 16.41529348 -67.22584942 13.18173524 -64 10 C-63.13181641 9.11634766 -63.13181641 9.11634766 -62.24609375 8.21484375 C-46.61055055 -6.51647527 -19.33627289 -5.80842528 0 0 Z " fill="#FAF9F9" transform="translate(568,410)"/>
<path d="M0 0 C1.70284653 -0.00956978 1.70284653 -0.00956978 3.44009399 -0.01933289 C4.67335419 -0.02044571 5.90661438 -0.02155853 7.17724609 -0.02270508 C8.44281342 -0.02603348 9.70838074 -0.02936188 11.01229858 -0.03279114 C13.69736226 -0.03786377 16.38232481 -0.0406309 19.06738281 -0.04003906 C22.49016631 -0.03993794 25.91274002 -0.05353634 29.33547401 -0.07081127 C32.61605661 -0.08468843 35.89663817 -0.08402264 39.17724609 -0.08520508 C40.3983609 -0.09239059 41.61947571 -0.09957611 42.87759399 -0.10697937 C55.91498351 -0.07222528 67.01316661 3.05795029 76.75537109 12.12963867 C84.07658623 20.23639191 87.04994097 28.94741072 86.75537109 39.71557617 C86.0422559 49.35813378 81.7756703 59.59982121 74.57568359 66.14526367 C75.77532585 68.63827024 77.07794607 71.02526938 78.45068359 73.43041992 C82.67847067 80.87942514 85.96658936 87.44580903 86.57568359 96.14526367 C86.69556641 97.49297852 86.69556641 97.49297852 86.81787109 98.86791992 C87.03061882 103.11661715 87.0003159 105.442424 84.76318359 109.14526367 C80.66769328 112.88971196 78.22075022 113.59720849 72.86083984 113.45776367 C69.25300531 112.96438459 67.24639315 111.56161994 64.57568359 109.14526367 C62.24089589 105.68333708 61.46117184 102.84974571 61.13818359 98.77026367 C60.54483421 92.10907724 58.11761043 87.25066298 53.13818359 82.77026367 C48.97384604 79.31125475 44.92287725 77.8991773 39.52099609 77.94213867 C38.10367188 77.92473633 38.10367188 77.92473633 36.65771484 77.90698242 C34.69417305 77.89920088 32.73050607 77.9068903 30.76708984 77.93041992 C24.75704513 77.82411981 21.12988515 77.08350239 16.81396484 72.74047852 C14.24439822 69.43023635 14.31374587 66.18658856 14.57568359 62.14526367 C15.58730042 57.59298796 17.76916544 55.72171777 21.57568359 53.14526367 C24.49487305 52.6628418 24.49487305 52.6628418 27.68896484 52.67651367 C29.43790039 52.65524414 29.43790039 52.65524414 31.22216797 52.63354492 C33.65445976 52.64131996 36.08675142 52.6491321 38.51904297 52.65698242 C45.69189897 52.57003871 50.49113948 52.05623707 56.57568359 48.14526367 C59.46994838 45.07010734 59.83026678 42.30008907 60.07568359 38.20776367 C59.9652085 34.67782142 59.57279824 32.45011592 57.38818359 29.64526367 C51.87916796 24.74836089 46.74137466 24.82035413 39.68115234 24.73120117 C38.73379715 24.71183502 37.78644196 24.69246887 36.81037903 24.67251587 C33.79473782 24.61289996 30.77905808 24.56640662 27.76318359 24.52026367 C25.71433914 24.48206735 23.66551046 24.44301465 21.61669922 24.40307617 C16.60315597 24.30721314 11.58953756 24.2231156 6.57568359 24.14526367 C6.58678665 25.14671417 6.59788971 26.14816467 6.60932922 27.17996216 C6.71076465 36.62575666 6.78567743 46.0714404 6.83474445 55.51765633 C6.86081873 60.3738999 6.89617707 65.22970318 6.95288086 70.08569336 C7.00727816 74.77359203 7.03712046 79.46106769 7.05006981 84.14925766 C7.05929586 85.93624403 7.07731259 87.7232077 7.10433388 89.51001358 C7.14072804 92.01670279 7.1456248 94.52165279 7.14331055 97.02856445 C7.16128693 97.76440262 7.17926331 98.50024078 7.19778442 99.25837708 C7.1408006 104.97717306 5.49024589 107.28257814 1.57568359 111.14526367 C-2.36682229 113.11651661 -7.12651356 112.59243391 -11.42431641 112.14526367 C-15.61178267 109.8378843 -17.02661959 107.62386085 -18.42431641 103.14526367 C-18.62151164 100.34403589 -18.71813815 97.64225433 -18.71484375 94.84179688 C-18.72156097 94.0183226 -18.7282782 93.19484833 -18.73519897 92.34642029 C-18.75416325 89.62956671 -18.75810285 86.91296054 -18.76025391 84.19604492 C-18.76668462 82.29900513 -18.77341319 80.40196632 -18.78042603 78.50492859 C-18.79239609 74.52800195 -18.7961073 70.55116213 -18.79492188 66.57421875 C-18.79471909 61.49809386 -18.82198021 56.42253139 -18.85646629 51.3465395 C-18.87879719 47.42666611 -18.88275747 43.50692654 -18.88170242 39.58699608 C-18.88405064 37.71684017 -18.89282992 35.84668014 -18.90836716 33.9765873 C-19.07332331 12.06447013 -19.07332331 12.06447013 -12.58627319 5.20039368 C-8.39115126 1.40278919 -5.69830607 0.02168192 0 0 Z " fill="#0D7ED9" transform="translate(631.42431640625,578.854736328125)"/>
<path d="M0 0 C0 11.55 0 23.1 0 35 C-5.94 35.495 -5.94 35.495 -12 36 C-20.02089829 38.01145843 -27.213533 41.03667403 -32 48 C-38.92617571 60.08831204 -39.31431541 72.37151014 -39.4140625 85.9453125 C-39.43280572 87.56770782 -39.4523814 89.19009372 -39.4727478 90.81246948 C-39.52374229 95.05048019 -39.56354132 99.28852238 -39.60089111 103.52667236 C-39.64823289 108.62891716 -39.70968862 113.73100972 -39.76873779 118.83312988 C-39.85655086 126.55535735 -39.92660014 134.27756157 -40 142 C-51.88 142 -63.76 142 -76 142 C-76.12032643 122.34668343 -76.12032643 122.34668343 -76.14648438 113.890625 C-76.16433349 108.14802609 -76.18531907 102.40557233 -76.22631836 96.66308594 C-76.25920626 92.02704922 -76.27691426 87.39116844 -76.28463173 82.75502396 C-76.29012294 80.99702123 -76.30084384 79.23902585 -76.31719017 77.48109055 C-76.49233185 57.84300017 -73.62702075 40.68233011 -61 25 C-60.43152344 24.26652344 -59.86304688 23.53304688 -59.27734375 22.77734375 C-49.03983933 10.21643407 -32.36132545 2.32702071 -16.4375 0.25 C-10.96637538 -0.05823237 -5.47980034 0 0 0 Z " fill="#FAF9F9" transform="translate(405,409)"/>
<path d="M0 0 C12.21 0 24.42 0 37 0 C37 46.53 37 93.06 37 141 C24.79 141 12.58 141 0 141 C0 94.47 0 47.94 0 0 Z " fill="#FAFAFA" transform="translate(427,410)"/>
<path d="M0 0 C1.43533624 -0.00710995 2.87066968 -0.01481016 4.30599976 -0.02307129 C7.3033643 -0.03646955 10.30046558 -0.03810456 13.29785156 -0.03222656 C17.13260973 -0.02631486 20.96610862 -0.05700195 24.80062294 -0.09734344 C27.7604143 -0.12322111 30.71990161 -0.12609828 33.6797905 -0.12245178 C35.09356239 -0.12414099 36.50734862 -0.1337646 37.92100906 -0.15159607 C39.89724798 -0.17379544 41.87378641 -0.16087012 43.85009766 -0.14648438 C44.97259918 -0.14853882 46.09510071 -0.15059326 47.25161743 -0.15270996 C52.31124296 0.88783998 54.51608208 4.33271687 57.2734375 8.46875 C57.74087455 12.59777729 57.52078593 14.95426526 55.7109375 18.71875 C52.19507826 22.68536043 48.766113 24.20780962 43.57479858 24.75125122 C40.32944012 24.87814417 37.09548917 24.90982594 33.84765625 24.91015625 C32.6637178 24.92336411 31.47977936 24.93657196 30.25996399 24.95018005 C26.4935973 24.99095925 22.72747465 25.01272881 18.9609375 25.03125 C15.17662054 25.05500847 11.39253426 25.08303525 7.60835266 25.12303162 C5.25686197 25.14746303 2.90524817 25.16226092 0.55363464 25.16664124 C-1.03392891 25.18192116 -1.03392891 25.18192116 -2.65356445 25.19750977 C-4.05418877 25.20392235 -4.05418877 25.20392235 -5.48310852 25.21046448 C-7.92873357 25.25652593 -7.92873357 25.25652593 -9.7265625 27.46875 C-10.0469147 30.22960062 -10.0469147 30.22960062 -9.9765625 33.34375 C-9.98171875 34.39304687 -9.986875 35.44234375 -9.9921875 36.5234375 C-9.72976172 39.43327635 -9.09103101 40.94915795 -7.7265625 43.46875 C-6.85039276 43.47017502 -5.97422302 43.47160004 -5.07150269 43.47306824 C3.19736689 43.49091925 11.46570259 43.53259484 19.73431587 43.60084057 C23.98505799 43.63508926 28.23544152 43.66021719 32.48632812 43.66430664 C36.59098964 43.66859425 40.69484256 43.69709417 44.79925156 43.74218178 C46.36283529 43.7551422 47.92651586 43.75946958 49.49014664 43.75490379 C51.68588124 43.74998684 53.87926235 43.77613167 56.07470703 43.80932617 C57.94668259 43.81931892 57.94668259 43.81931892 59.85647583 43.82951355 C64.3793284 44.67563724 66.02660395 46.25769992 69.2734375 49.46875 C70.99790946 52.91769392 70.64014846 56.69031745 70.2734375 60.46875 C68.64272237 64.2193948 66.77821864 66.39186797 63.2734375 68.46875 C60.74985102 68.75838963 58.47515477 68.87927645 55.95385742 68.85693359 C55.223246 68.86219055 54.49263458 68.86744751 53.73988342 68.87286377 C51.32767264 68.88605285 48.91612363 68.87732717 46.50390625 68.8671875 C44.82245253 68.86920921 43.14099967 68.87212146 41.45954895 68.87588501 C37.93478043 68.88030742 34.41024003 68.8738825 30.88549805 68.85986328 C26.37968518 68.8428108 21.87440999 68.85258789 17.36861706 68.87058067 C13.89492288 68.88145455 10.42135474 68.87795502 6.94765663 68.8701973 C5.28716276 68.86820318 3.62665726 68.87062672 1.96617699 68.87763596 C-0.36245339 68.88530559 -2.69023145 68.87356861 -5.01879883 68.85693359 C-5.69800385 68.86300629 -6.37720886 68.86907898 -7.07699585 68.87533569 C-15.24080175 68.76798362 -21.86005097 64.95369981 -27.7265625 59.46875 C-36.20256949 49.16009285 -37.95522882 38.75698499 -37.01953125 25.73779297 C-35.88461007 16.94782839 -30.69320608 10.67775417 -24.16796875 5.08984375 C-16.31728332 -0.12301138 -9.23299351 -0.00556419 0 0 Z " fill="#0E7EDA" transform="translate(528.7265625,622.53125)"/>
<path d="M0 0 C9.09380271 6.79738789 15.17223374 13.98233075 18 25 C19.72070773 37.36914543 18.33322475 49.50047507 10.98046875 59.83984375 C4.850145 67.15114055 -3.23578368 73.14140684 -13.00463867 74.22167969 C-24.54257577 74.82996566 -34.04974375 74.33715127 -43.25 66.6875 C-51.60797514 58.76852962 -56.73326386 51.60816873 -57.23828125 39.7421875 C-57.51110052 27.76394688 -56.74441744 17.59584595 -48.90234375 7.91796875 C-36.50096965 -4.58526468 -15.92275271 -9.58954833 0 0 Z " fill="#070707" transform="translate(255,445)"/>
<path d="M0 0 C1.25585907 -0.0159874 2.51171814 -0.03197479 3.80563354 -0.04844666 C5.17657055 -0.05482917 6.54751248 -0.06022007 7.91845703 -0.06469727 C9.33651823 -0.07367581 10.75457854 -0.08279786 12.17263794 -0.09205627 C15.15010875 -0.1085452 18.12746727 -0.11624454 21.10498047 -0.11914062 C24.88173085 -0.12448399 28.65739085 -0.16199277 32.43383598 -0.20788479 C35.3682313 -0.23796671 38.30237584 -0.24487103 41.23691177 -0.24586678 C42.62651619 -0.25001812 44.01612502 -0.26224241 45.4055748 -0.28338432 C57.73693981 -0.45587356 68.63495677 1.47735907 78.36376953 9.55639648 C86.51289962 17.63873043 90.79032304 27.71611444 91.23876953 39.18139648 C90.94255009 49.20134106 87.61024247 57.95652383 80.80126953 65.30639648 C80.24955078 65.92256836 79.69783203 66.53874023 79.12939453 67.17358398 C70.83300605 75.43451781 59.56010204 77.86409126 48.24319458 77.99537659 C46.80229916 77.99178133 45.36139922 77.9793844 43.9206543 77.95825195 C41.7079569 77.93101723 39.50015876 77.95837179 37.28759766 77.98999023 C35.86375847 77.98669225 34.43992229 77.98029871 33.01611328 77.97045898 C31.11526978 77.96199951 31.11526978 77.96199951 29.17602539 77.95336914 C24.92897634 77.13916962 23.50976544 75.60282306 20.80126953 72.30639648 C18.12005877 68.28458034 17.98782618 65.03403257 18.80126953 60.30639648 C20.51204927 57.23462468 22.6109826 54.90153995 25.80126953 53.30639648 C27.88556709 53.21133748 29.97263623 53.1745148 32.05908203 53.16577148 C33.32494141 53.14643555 34.59080078 53.12709961 35.89501953 53.10717773 C38.55990742 53.06894126 41.22167663 53.05511896 43.88720703 53.05249023 C51.29321145 52.91006707 57.23335917 52.61366379 62.80126953 47.30639648 C64.13954854 44.62983847 64.00705509 42.48205596 64.05126953 39.49389648 C64.07705078 38.45620117 64.10283203 37.41850586 64.12939453 36.34936523 C63.74580963 32.79207195 63.04780394 31.08624683 60.80126953 28.30639648 C56.55013111 25.77444305 53.43223177 24.93511391 48.50805664 24.95336914 C47.28336166 24.94971344 46.05866669 24.94605774 44.79685974 24.94229126 C42.83257774 24.95623428 42.83257774 24.95623428 40.82861328 24.97045898 C39.45910401 24.96630204 38.08959954 24.96011473 36.72010803 24.95199585 C30.9260502 24.92115282 25.13222361 24.92592935 19.33813477 24.94604492 C15.78424953 24.95697702 12.23109307 24.94374831 8.67730904 24.91614914 C6.673771 24.90809034 4.67018335 24.92801145 2.66673279 24.94839478 C-7.43442196 24.86603358 -7.43442196 24.86603358 -10.4387207 21.95629883 C-11.30992554 20.64459717 -11.30992554 20.64459717 -12.19873047 19.30639648 C-12.85873047 18.31639648 -13.51873047 17.32639648 -14.19873047 16.30639648 C-14.92390439 11.80357238 -14.79873083 8.31353994 -12.44873047 4.36889648 C-8.40650087 0.66351936 -5.4589566 0.05262935 0 0 Z " fill="#0F7ED9" transform="translate(749.19873046875,578.693603515625)"/>
<path d="M0 0 C0.83921494 -0.0065712 1.67842987 -0.0131424 2.54307556 -0.01991272 C5.32787155 -0.03966654 8.11261353 -0.0513136 10.89746094 -0.0612793 C11.84797081 -0.06535482 12.79848068 -0.06943035 13.77779388 -0.07362938 C18.80970544 -0.09450007 23.84158966 -0.10879686 28.87353516 -0.11816406 C34.07004941 -0.12922415 39.26613494 -0.1636166 44.46249771 -0.20333576 C48.45854485 -0.22948974 52.45448973 -0.23785487 56.45061493 -0.24144554 C58.36595298 -0.24631549 60.28128635 -0.2579411 62.19654083 -0.27648354 C64.88006968 -0.30084669 67.56248803 -0.2999151 70.24609375 -0.29296875 C71.03489426 -0.30577881 71.82369476 -0.31858887 72.63639832 -0.33178711 C77.82532041 -0.28292427 80.76961155 0.74420185 84.88183594 4.17700195 C87.71344126 8.42440994 87.52705911 12.19046238 86.88183594 17.17700195 C84.54724892 21.32737887 82.35031086 22.78970288 77.88183594 24.17700195 C75.08424353 24.36920425 72.38721059 24.46066925 69.59082031 24.45166016 C68.76906815 24.45677109 67.94731598 24.46188202 67.10066223 24.46714783 C64.39222879 24.48101496 61.68405059 24.48008947 58.97558594 24.4777832 C57.0889883 24.48167123 55.20239153 24.48600613 53.3157959 24.49076843 C49.36496134 24.49822409 45.41421616 24.49794375 41.46337891 24.49267578 C36.40254511 24.48687686 31.34207677 24.50382554 26.28130341 24.52702045 C22.38651392 24.54175582 18.49181254 24.54262985 14.59700012 24.53951073 C12.73109716 24.54002387 10.86518926 24.54526025 8.99931335 24.55532265 C6.39025123 24.56766825 3.78190239 24.56090721 1.17285156 24.54931641 C0.01937981 24.56078201 0.01937981 24.56078201 -1.15739441 24.57247925 C-5.66419688 24.52825725 -8.52394619 23.93823894 -12.11816406 21.17700195 C-15.24721014 17.50846517 -15.6883753 14.075976 -15.54785156 9.3996582 C-14.81203752 5.59349286 -12.89362165 3.8202949 -10.11816406 1.17700195 C-6.93656347 -0.41379835 -3.49517639 0.01179348 0 0 Z " fill="#0F7EDA" transform="translate(511.1181640625,578.822998046875)"/>
<path d="M0 0 C3.89879209 3.24899341 5.97161072 5.69333707 6.61935425 10.76953125 C6.7636032 14.45634422 6.77782117 18.12296134 6.74609375 21.8125 C6.74624891 23.1796069 6.74774077 24.54671424 6.75050354 25.91381836 C6.7518842 28.77184622 6.73938646 31.62937021 6.71655273 34.48730469 C6.68816831 38.13902668 6.6909095 41.78991228 6.70364285 45.44169617 C6.71061909 48.26256372 6.70278875 51.08324012 6.69038582 53.90408325 C6.68371414 55.90145789 6.68800121 57.89885949 6.69248962 59.89624023 C6.67980545 61.11770752 6.66712128 62.3391748 6.65405273 63.59765625 C6.64864975 64.66765869 6.64324677 65.73766113 6.63768005 66.84008789 C6.06945291 71.28839371 4.5302403 74.67477472 1.25 77.75 C-3.3970727 79.49265226 -7.8524917 79.54518535 -12.75 78.875 C-16.4312785 76.77141228 -18.19544035 74.76243039 -19.75 70.875 C-20.01742554 68.04263306 -20.01742554 68.04263306 -20.04052734 64.73291016 C-20.05328705 63.49127106 -20.06604675 62.24963196 -20.07919312 60.97036743 C-20.08225088 59.61826738 -20.08447858 58.26616523 -20.0859375 56.9140625 C-20.09236801 55.52167627 -20.09909656 54.12929138 -20.10610962 52.73690796 C-20.11807396 49.82001616 -20.12179134 46.90324272 -20.12060547 43.98632812 C-20.12040237 40.25826403 -20.1476981 36.53096299 -20.18214989 32.80307961 C-20.20444613 29.92734325 -20.20844219 27.05178972 -20.20738602 24.1759758 C-20.20973813 22.80211127 -20.21853979 21.42824141 -20.23405075 20.05446243 C-20.37020546 6.7494503 -20.37020546 6.7494503 -15.75 1.875 C-10.98288955 -2.09759204 -5.61066498 -2.29527204 0 0 Z " fill="#0E7CD6" transform="translate(753.75,612.125)"/>
<path d="M0 0 C5.77466412 2.95678678 10.92477311 7.2047913 13.3359375 13.3515625 C14.93942477 19.78778222 16.00770237 27.388039 13.171875 33.5625 C11.67781207 35.6477964 10.12058923 37.38577388 8.2734375 39.1640625 C7.685625 39.74027344 7.0978125 40.31648438 6.4921875 40.91015625 C0.57039974 46.32547532 -4.59473584 47.70813238 -12.59375 47.53125 C-19.91636336 46.67298858 -25.06485071 43.41195198 -29.7265625 37.7890625 C-34.15798386 31.47037699 -35.80616142 24.8134158 -34.7265625 17.1640625 C-31.78505336 8.71859553 -26.51424489 3.32175741 -18.7265625 -0.8359375 C-12.52154601 -2.90427633 -6.08310303 -2.28383167 0 0 Z " fill="#1184E0" transform="translate(455.7265625,344.8359375)"/>
<path d="M0 0 C1.11375 0.495 1.11375 0.495 2.25 1 C9.85513009 3.02803469 17.61611384 2.68504951 25 0 C22.47463555 3.78804668 20.15839211 4.32205231 16 6 C15.01 6.66 14.02 7.32 13 8 C9.3125 7.125 9.3125 7.125 6 6 C6 5.34 6 4.68 6 4 C3.03 3.505 3.03 3.505 0 3 C0 2.01 0 1.02 0 0 Z " fill="#041524" transform="translate(434,389)"/>
<path d="M0 0 C1.32570511 0.00666183 1.32570511 0.00666183 2.67819214 0.01345825 C3.67907867 0.01360931 4.67996521 0.01376038 5.71118164 0.01391602 C7.33623123 0.02939987 7.33623123 0.02939987 8.99411011 0.04519653 C10.65456863 0.04944138 10.65456863 0.04944138 12.34857178 0.05377197 C15.89458898 0.06499384 19.44035636 0.09010213 22.98629761 0.11550903 C25.38603355 0.12553624 27.78577344 0.13466253 30.18551636 0.14285278 C36.07752911 0.16493971 41.96939552 0.19843697 47.86129761 0.24050903 C47.86129761 0.57050903 47.86129761 0.90050903 47.86129761 1.24050903 C47.2688324 1.24859589 46.67636719 1.25668274 46.06594849 1.26501465 C39.9014839 1.35104864 33.73734131 1.45055188 27.57321167 1.55789185 C25.27248541 1.5961832 22.97169925 1.63103578 20.67086792 1.66238403 C17.36433499 1.70803073 14.05821449 1.76602651 10.75192261 1.82644653 C9.20797821 1.84377335 9.20797821 1.84377335 7.63284302 1.8614502 C6.19180206 1.89125473 6.19180206 1.89125473 4.72164917 1.92166138 C3.45590057 1.94164688 3.45590057 1.94164688 2.1645813 1.96203613 C-0.38627384 2.27044106 -1.99947094 2.82033107 -4.13870239 4.24050903 C-4.46870239 5.23050903 -4.79870239 6.22050903 -5.13870239 7.24050903 C-4.06769063 0.45743454 -4.06769063 0.45743454 0 0 Z " fill="#03101C" transform="translate(523.1387023925781,646.7594909667969)"/>
<path d="M0 0 C0.33 0.99 0.66 1.98 1 3 C1.66 3 2.32 3 3 3 C3.26213592 19.10679612 3.26213592 19.10679612 0 24 C-2.89505655 25.90464247 -5.89961475 27.46300051 -9 29 C-8.60167969 28.55269531 -8.20335937 28.10539062 -7.79296875 27.64453125 C-7.26316406 27.03996094 -6.73335938 26.43539063 -6.1875 25.8125 C-5.66542969 25.22082031 -5.14335937 24.62914062 -4.60546875 24.01953125 C-0.26569377 18.56049557 0.4103591 15.00470278 0.1875 8.1875 C0.17396484 7.39923828 0.16042969 6.61097656 0.14648438 5.79882812 C0.11133456 3.86558831 0.05753361 1.93270318 0 0 Z " fill="#092647" transform="translate(469,359)"/>
<path d="M0 0 C-1.1446875 0.6496875 -1.1446875 0.6496875 -2.3125 1.3125 C-5.49291132 3.30950246 -7.55309305 4.61626135 -8.73046875 8.26171875 C-8.95669922 9.46248047 -8.95669922 9.46248047 -9.1875 10.6875 C-9.34605469 11.49574219 -9.50460937 12.30398438 -9.66796875 13.13671875 C-9.77753906 13.75160156 -9.88710938 14.36648438 -10 15 C-10.33 15 -10.66 15 -11 15 C-11.76140684 7.38593156 -11.76140684 7.38593156 -9.95703125 4.1015625 C-6.64525403 0.11966027 -4.96550338 -1.48965101 0 0 Z " fill="#1564AB" transform="translate(779,633)"/>
<path d="M0 0 C1.98 0.99 1.98 0.99 4 2 C4.05384521 4.29141286 4.09272087 6.58318188 4.125 8.875 C4.14820313 10.15117187 4.17140625 11.42734375 4.1953125 12.7421875 C4 16 4 16 2 18 C2.33 13.38 2.66 8.76 3 4 C2.34 4 1.68 4 1 4 C0.67 2.68 0.34 1.36 0 0 Z " fill="#030F1C" transform="translate(469,358)"/>
<path d="M0 0 C0.66 0.33 1.32 0.66 2 1 C1.36191406 1.62648438 0.72382813 2.25296875 0.06640625 2.8984375 C-0.75988281 3.71570313 -1.58617187 4.53296875 -2.4375 5.375 C-3.26121094 6.18710937 -4.08492188 6.99921875 -4.93359375 7.8359375 C-7.03434672 9.82348515 -7.03434672 9.82348515 -8 12 C-8.66 11.67 -9.32 11.34 -10 11 C-9.09066991 9.72390677 -8.17217147 8.45434447 -7.25 7.1875 C-6.73953125 6.47980469 -6.2290625 5.77210938 -5.703125 5.04296875 C-3.97517642 2.97022309 -2.21473524 1.52624146 0 0 Z " fill="#1B79CA" transform="translate(433,346)"/>
<path d="M0 0 C0.804375 0.309375 1.60875 0.61875 2.4375 0.9375 C6.62249087 2.18565517 10.66306101 2.6337696 15 3 C15 3.33 15 3.66 15 4 C12.87506859 4.02693575 10.75004088 4.04636628 8.625 4.0625 C7.44164062 4.07410156 6.25828125 4.08570313 5.0390625 4.09765625 C2 4 2 4 0 3 C0 2.01 0 1.02 0 0 Z " fill="#061B2F" transform="translate(434,389)"/>
<path d="M0 0 C0.66 0.33 1.32 0.66 2 1 C1.34 1.66 0.68 2.32 0 3 C-0.70710678 4.64991582 -1.37943989 6.31562256 -2 8 C-2.66 7.67 -3.32 7.34 -4 7 C-3.43628586 3.73045798 -2.50037734 2.17424117 0 0 Z " fill="#0D6BBE" transform="translate(651,633)"/>
<path d="M0 0 C0.78375 0.04125 1.5675 0.0825 2.375 0.125 C-2.375 4.125 -2.375 4.125 -4.625 4.125 C-4.955 5.115 -5.285 6.105 -5.625 7.125 C-4.53409091 0.21590909 -4.53409091 0.21590909 0 0 Z " fill="#0B1F36" transform="translate(523.625,646.875)"/>
</svg>
